<svg xmlns="http://www.w3.org/2000/svg" xmlns:xlink="http://www.w3.org/1999/xlink" width="275" height="193" viewBox="0 0 275 193">
  <defs>
    <clipPath id="clip-Brand_Pattern_Single">
      <rect width="275" height="193"/>
    </clipPath>
  </defs>
  <g id="Brand_Pattern_Single" data-name="Brand Pattern Single" clip-path="url(#clip-Brand_Pattern_Single)">
    <rect width="275" height="193" fill="#fff"/>
    <g id="Group_692" data-name="Group 692" transform="translate(-1694.775 -3770.175)">
      <path id="Path_3636" data-name="Path 3636" d="M210.05,98.41a35.78,35.78,0,1,1,35.78-35.78A35.819,35.819,0,0,1,210.05,98.41Zm0-66.96a31.17,31.17,0,1,0,31.17,31.17,31.2,31.2,0,0,0-31.17-31.17Z" transform="translate(1692.06 3752.7)" fill="#1d1d1b"/>
      <path id="Path_3637" data-name="Path 3637" d="M125.98,98.41V93.8a31.17,31.17,0,1,0,0-62.34V26.85a35.78,35.78,0,0,1,0,71.56Z" transform="translate(1692.06 3752.7)" fill="#1d1d1b"/>
      <path id="Path_3638" data-name="Path 3638" d="M188.94,171.25c-4.01,0-8.02-.1-11.93-.2-1.87-.05-3.75-.1-5.62-.13l-2.28-.04.03-2.28c.17-15.63,3.27-26.81,9.75-35.17a48.468,48.468,0,0,1,17.1-13.81c.89-.43,1.74-.9,2.56-1.35a25.712,25.712,0,0,1,6.96-2.92,70.633,70.633,0,0,1,13.4-1.62,239.875,239.875,0,0,1,24.81.93l2.06.18.04,2.07c.21,11.97-.6,20.6-5.33,29.31a46.31,46.31,0,0,1-22.16,20.34c-6.5,2.81-14.2,4.32-23.55,4.61-1.94.06-3.88.08-5.82.08Zm-15.16-4.89c1.11.03,2.23.05,3.34.08,5.75.15,11.69.3,17.49.12,8.75-.27,15.9-1.66,21.86-4.23a41.7,41.7,0,0,0,19.94-18.31c3.98-7.32,4.87-14.82,4.8-24.95-7.6-.61-14.9-.86-22.25-.74a66.636,66.636,0,0,0-12.47,1.51,21.558,21.558,0,0,0-5.75,2.46c-.87.47-1.76.96-2.76,1.45a43.916,43.916,0,0,0-15.47,12.49c-5.53,7.13-8.32,16.75-8.74,30.12Z" transform="translate(1692.06 3752.7)" fill="#1d1d1b"/>
      <rect id="Rectangle_158" data-name="Rectangle 158" width="4.61" height="142.85" transform="translate(1950.94 3780.25)" fill="#1d1d1b"/>
      <path id="Path_3639" data-name="Path 3639" d="M70.38,201.1a35.78,35.78,0,1,1,35.78-35.78A35.819,35.819,0,0,1,70.38,201.1Zm0-66.96a31.17,31.17,0,1,0,31.17,31.17A31.2,31.2,0,0,0,70.38,134.14Z" transform="translate(1692.06 3752.7)" fill="#1d1d1b"/>
      <path id="Path_3640" data-name="Path 3640" d="M154.45,201.1a35.78,35.78,0,0,1,0-71.56v4.61a31.17,31.17,0,0,0,0,62.34Z" transform="translate(1692.06 3752.7)" fill="#1d1d1b"/>
      <path id="Path_3641" data-name="Path 3641" d="M57.89,114.27c-6.96,0-13.92-.32-21.17-.96l-2.06-.18-.04-2.07c-.21-11.97.6-20.6,5.33-29.31A46.31,46.31,0,0,1,62.11,61.41c6.5-2.81,14.2-4.32,23.55-4.61,5.92-.18,11.92-.03,17.72.12,1.89.05,3.77.1,5.66.13l2.28.04-.03,2.28c-.17,15.63-3.27,26.81-9.75,35.18a48.468,48.468,0,0,1-17.1,13.81c-.89.43-1.74.9-2.56,1.35a25.634,25.634,0,0,1-6.95,2.91,71.377,71.377,0,0,1-13.4,1.63c-1.21.02-2.43.03-3.64.03ZM39.2,108.89c7.6.61,14.9.86,22.25.74a66.437,66.437,0,0,0,12.47-1.51,21.558,21.558,0,0,0,5.75-2.46c.87-.47,1.77-.97,2.76-1.45A43.807,43.807,0,0,0,97.9,91.72c5.53-7.13,8.32-16.75,8.74-30.12-1.13-.03-2.25-.05-3.38-.08-5.73-.15-11.66-.3-17.46-.12-8.75.27-15.9,1.66-21.86,4.23A41.672,41.672,0,0,0,44,83.95c-3.98,7.32-4.87,14.82-4.8,24.95Z" transform="translate(1692.06 3752.7)" fill="#1d1d1b"/>
      <rect id="Rectangle_159" data-name="Rectangle 159" width="4.61" height="142.85" transform="translate(1709 3810.25)" fill="#1d1d1b"/>
    </g>
  </g>
</svg>
