<svg xmlns="http://www.w3.org/2000/svg" xmlns:xlink="http://www.w3.org/1999/xlink" width="275" height="193" viewBox="0 0 275 193">
  <defs>
    <clipPath id="clip-Logo">
      <rect width="275" height="193"/>
    </clipPath>
  </defs>
  <g id="Logo" clip-path="url(#clip-Logo)">
    <rect width="275" height="193" fill="#fff"/>
    <g id="Group_689" data-name="Group 689" transform="translate(-22.278 -61.405)">
      <path id="Path_390" data-name="Path 390" d="M215.51,118.607a33.946,33.946,0,0,0,1.435-6.379c.142-1.021.253-2.052.364-3.083a13.84,13.84,0,0,0,0-2.244c-.01-.222-.03-.465-.04-.728l-.121-3.558L213.6,102.3s-1.253-.111-1.688-.121c-1.678-.04-3.376,0-5.044.111a18.914,18.914,0,0,0-7.612,1.86,16.669,16.669,0,0,0-6.5,6.581c-3.083,5.287-3.346,11.969-3.275,16.528l.061,3.791,4.893.243c.981.051,1.941.111,2.921.111a20.847,20.847,0,0,0,3.012-.2,19.372,19.372,0,0,0,7.491-2.4,18.9,18.9,0,0,0,7.642-10.2Zm-11.878,3.306A12.147,12.147,0,0,1,199.2,123.2a11.555,11.555,0,0,1-1.567.121,19.676,19.676,0,0,1,2.1-8.512,8.763,8.763,0,0,1,3.265-3.5,11.605,11.605,0,0,1,4.428-.95c.536-.04,1.061-.061,1.6-.081-.03.273-.071.556-.111.829a25.792,25.792,0,0,1-1.092,4.9,10.949,10.949,0,0,1-4.215,5.9Z" transform="translate(1.534 0.253)" fill="#45c38f"/>
      <path id="Path_391" data-name="Path 391" d="M182.529,103.1a18.573,18.573,0,0,0-2.113-4.974c-.263-.465-.536-.94-.788-1.466A32.671,32.671,0,0,0,170.2,85.248c-7.491-5.671-16.963-6.338-23.432-6.338h-4l-.04,4c0,1.152-.03,2.3-.04,3.447-.051,3.639-.111,7.41.051,11.16a42,42,0,0,0,3.235,15.507,31.433,31.433,0,0,0,13.91,14.84c5.145,2.729,10.3,3.457,16.6,3.457.94,0,1.9-.02,2.891-.04l3.639-.1.283-3.629a148.626,148.626,0,0,0,.414-15.648,46.064,46.064,0,0,0-1.162-8.825Zm-7.076,20.147c-4.65-.071-8.309-.657-11.8-2.507a23.175,23.175,0,0,1-10.311-10.988A34.053,34.053,0,0,1,150.8,97.2c-.142-3.316-.1-6.743-.051-10.068,6.348.414,11.039,1.9,14.557,4.569a24.485,24.485,0,0,1,7.076,8.582c.323.647.657,1.233.981,1.809a10.887,10.887,0,0,1,1.294,2.861,37.82,37.82,0,0,1,.95,7.177c.1,3.68.051,7.339-.152,11.11Z" transform="translate(1.025 0)" fill="#45c38f"/>
      <rect id="Rectangle_52" data-name="Rectangle 52" width="8.087" height="52.616" transform="translate(191.591 137.955)" fill="#45c38f"/>
      <path id="Path_392" data-name="Path 392" d="M174.41,142.413a31.519,31.519,0,1,0,0,40.233V190H182.5V137.389H174.41Zm-24.251,43.549a23.432,23.432,0,1,1,23.432-23.432,23.461,23.461,0,0,1-23.432,23.432Z" transform="translate(0.764 0.567)" fill="#45c38f"/>
      <path id="Path_393" data-name="Path 393" d="M103.381,141.473a31.5,31.5,0,1,0,8.087,21.057c0-.708-.03-1.405-.081-2.1h.081V137.389h-8.087ZM79.949,185.961a23.432,23.432,0,1,1,23.432-23.432A23.461,23.461,0,0,1,79.949,185.961Z" transform="translate(0 0.567)" fill="#45c38f"/>
      <path id="Path_394" data-name="Path 394" d="M103.381,204.133a23.432,23.432,0,1,1-46.864,0H48.43a31.519,31.519,0,0,0,63.038,0v-10.5h-8.087v10.5Z" transform="translate(0 1.248)" fill="#45c38f"/>
      <path id="Path_395" data-name="Path 395" d="M261.33,137.389v5.024a31.519,31.519,0,1,0,0,40.233V190h8.087V137.389H261.33Zm-24.251,48.573a23.432,23.432,0,1,1,23.432-23.432A23.461,23.461,0,0,1,237.079,185.961Z" transform="translate(1.709 0.567)" fill="#45c38f"/>
    </g>
  </g>
</svg>
