<?xml version="1.0" encoding="UTF-8"?><svg id="Laag_1" xmlns="http://www.w3.org/2000/svg" viewBox="0 0 954.8 585.17"><defs><style>.cls-1{fill:#5fc638;}</style></defs><path class="cls-1" d="M217.1,420.09c-.31-23.65,1.58-47.61-1.58-71.26,.63-33.42-1.26-63.69-1.26-97.43v-1.26c.32-4.41,1.26-25.54,1.26-29.96,0-2.52,3.15-4.41,4.42-5.68,1.58-1.26,9.46-.95,12.61-1.26,.32,0,8.52-.63,11.98-.63h.32l34.05,1.89c1.89,.63,1.89,1.26,1.89,2.52,0,13.24-1.89,27.43-1.89,40.67v109.41c.32,1.58,.95,3.47,1.58,5.04,1.26,0,7.25,.32,8.2,.32,4.41,.32,24.59,.95,28.69,.95l1.58,1.26c-.31,17.66,.32,34.05,.32,51.71,0,.95,.32,2.21-1.26,2.52-12.61,4.42-26.17,3.47-39.41,3.47h-14.82c-.63,0-2.84-.32-3.47-.32-1.26-.32-13.88,0-15.45,0-3.78-.32-25.54-3.47-27.12-5.68-.32-.95-.63-5.36-.63-6.31Z"/><path class="cls-1" d="M333.75,478.02l-1.58-327.56c.32-.95,.95-2.84,2.21-2.84s1.58,.32,2.84,.95l43.2,1.26,9.78,1.58,1.26,1.26,.95,7.88c-.32,31.53,1.89,123.32,1.89,155.17,0,16.71-1.58,33.42-1.58,50.45,0,13.87,.95,87.25,.95,101.13v10.72c-.95,1.26-3.47,2.2-4.73,2.2-2.84,.32-13.56,.63-15.45,.63-5.36,0-30.27-.95-35.31-1.26-1.26-.32-3.15-.63-4.41-1.58Z"/><path class="cls-1" d="M406.9,478.86c0-5.36,.95-10.72,2.21-15.77l20.81-328.92c1.26-7.57,6.62-8.83,13.88-8.83h.32c1.26,0,11.03,.63,12.61,.63h2.2c10.4,0,20.81-1.26,31.53-1.26,6.62,0,12.93,.95,19.55,.63l1.58,1.26,9.46,154.74,21.13-147.49c1.26-3.78,2.2-3.78,5.36-3.78,18.29,0,36.26,1.89,54.55,1.58l1.26,1.26c.32,.32,1.26,5.05,1.26,6.94,.95,5.99,.31,96.1,1.89,101.14l3.47,40.36c-.95,5.05,1.58,9.78,1.26,14.5l14.5,169.95v11.98c0,.32-1.89,2.21-2.84,2.52h-1.58c-11.35,0-22.7-2.21-34.05-2.21-2.84,0-5.68,.95-8.51,.95-9.15,0-8.52-4.42-9.46-12.61l-6.3-112.56-4.73-26.48c-.32-.63-.95-4.73-2.21-5.99l-2.52,5.36c-.95,1.58-7.25,23.96-9.15,32.16-2.2,9.15-2.84,18.92-5.68,27.75-.63,1.89-1.89,3.47-4.1,3.47-5.68,0-11.35-.95-17.03-.95-8.51,0-16.71,.95-25.22,.95h-3.15l-1.26-1.58-12.93-61.8-1.26,1.89-8.83,141.48c-.32,1.58-.63,.21-.63,2.1-.32,4.1-1.26,11.03-5.68,12.93-8.83,.63-17.03,.95-25.23,.95h-2.52c-6.94,0-20.81,0-23.65-4.73,0-.63-.32-2.21-.32-2.52Z"/><path class="cls-1" d="M648.8,440.23c-5.36,0-10.4-1.58-11.35-7.25,0-3.15-.32-15.76-.32-18.6,0-4.73,.32-17.66,.32-18.29,0-1.89,.63-26.75,.63-28.65,.32-6.3,0-36.89-.32-43.2v-5.68c-1.58-29.64-4.1-98.61-4.1-128.88v-11.35c.32-1.58,.63-4.73,2.21-5.68l101.22,2.21c5.36,0,7.25,6.94,7.25,11.35,0,3.15-.63,5.36-.63,8.83,0,6.62,.63,12.93,.63,19.55,0,3.79,0,5.36-.63,10.09-5.36,7.25-13.88,7.25-21.76,7.25-6.31,0-12.93-.95-18.92-.95-1.58,0-3.15-.31-3.47,1.58l-1.58,50.68v7.57c1.58,3.15,5.99,3.15,9.15,3.15h.63c6.31,0,11.98-.95,18.6-.95,4.1,0,14.19,.31,16.08,5.99,0,.63-.31,5.05,0,5.68,0,.31,0,1.26,.32,1.58v11.67c0,8.51,3.15,29.96-10.72,29.96h-29.64c-2.21,0-4.42,4.1-5.05,5.99,0,.32-1.26,7.25-1.26,10.09v.32c0,7.88,5.36,22.34,12.3,22.34h21.01s.06,0,.09,0c4.46,.51,8,4,8.69,8.44,.46,3.01,1,6.11,1,9.21,0,4.1-.95,7.88-.95,11.67v.95c0,1.26,.63,12.3,.63,13.87v.95c0,8.83-12.3,8.83-18.6,8.83h-.63c-.63,0,.12,.32-2.4,.32-14.82,0-29.95-1.58-44.46-1.58-7.88,0-15.77,.95-23.96,.95Z"/><path class="cls-1" d="M187.13,295c-9.13-2.04-25.23,14.03-21.34,27.78,2.69,9.49,14.73,17.31,22.94,13.9,8.47-3.51,8.7-17.25,8.73-19.39,.14-8.45-3.34-20.74-10.33-22.3Z"/><path class="cls-1" d="M770.32,295c9.13-2.04,25.23,14.03,21.34,27.78-2.69,9.49-14.73,17.31-22.94,13.9-8.47-3.51-8.7-17.25-8.73-19.39-.14-8.45,3.34-20.74,10.33-22.3Z"/></svg>
